# xmcd CD database file
#
# Track frame offsets:
#	150
#	23115
#	42100
#	58910
#	83133
#	106368
#	125485
#	143018
#	165227
#	188912
#
# Disc length: 2920 seconds
#
# Revision: 0
# Processed by: cddbd v1.5PL3 Copyright (c) Steve Scherf et al.
# Submitted via: CDex 1.51
#
DISCID=7d0b660a
DTITLE=Jesse Robinson and The Knee Seep Band - Blues Child
DYEAR=2003
DGENRE=Blues
TTITLE0=Blues Changes
TTITLE1=Blues Child
TTITLE2=Side Porch Blues
TTITLE3=Call My Job
TTITLE4=My Girl
TTITLE5=Hands On It
TTITLE6=Homegrown Blues
TTITLE7=When A Man Loves A Woman
TTITLE8=Coming Home
TTITLE9=Blues In My House
EXTD=YEAR: 2003
EXTT0=
EXTT1=
EXTT2=
EXTT3=
EXTT4=
EXTT5=
EXTT6=
EXTT7=
EXTT8=
EXTT9=
PLAYORDER=
